<svg height="512" viewBox="0 0 60 60" width="512" xmlns="http://www.w3.org/2000/svg"><g id="016---Deer-Horns" transform="translate(0 -1)"><path id="Shape" d="m39.436 44.771c-.5363533-.1250275-1.0728413.207148-1.2.743-.4807059 2.0361622-1.6815505 3.8297927-3.381 5.05l-4.855 3.479-4.851-3.479c-1.6994495-1.2202073-2.9002941-3.0138378-3.381-5.05-.0788444-.3513551-.3405039-.6331878-.6850473-.7378623-.3445433-.1046745-.7187579-.0160245-.9797261.2320934-.2609682.2481178-.368385.6173833-.2812266.9667689.5925113 2.5052312 2.0702232 4.7120328 4.161 6.214 5.863 4.2 5.569 4.084 6.017 4.084s.169.11 6.017-4.084c2.0907768-1.5019672 3.5684887-3.7087688 4.161-6.214.0612775-.2580564.0175263-.5298861-.1216276-.755683s-.3623104-.3870628-.6203724-.448317z"/><path id="Shape" d="m55.284 19.315c.021-.076.023-.121.286-1.991 2.1941299-1.0803394 3.7713329-3.1075925 4.279-5.5.1987837-.9732872.1987837-1.97671284 0-2.95-.1601547-.90129367-.9088014-1.58069763-1.8213617-1.65290278-.9125602-.07220516-1.7587365.48101048-2.0586383 1.34590278-.716 2.114-1.131 2.4-3.407 3.372-1.581128-.1588046-3.0005993-1.0380872-3.847-2.383-1.0972268-2.0039265-1.699627-4.24106995-1.757-6.525-.0492608-1.15510992-1.0141602-2.05820244-2.17-2.031-1.0222322.03264468-1.8722838.79697325-2.013 1.81-.852 6.063.938 12.379 6.684 14.575-1.262 6.179-3.177 10.892-7.892 13.747-3.9231922-1.6574798-7.3997767-4.2175507-10.147-7.472-.3655001-.4055875-.8870275-.6354722-1.4329918-.6316503-.5459642.0038219-1.0642221.2409856-1.4240082.6516503-2.7438016 3.2454739-6.2139645 5.7985052-10.129 7.452-4.718-2.862-6.634-7.572-7.893-13.747 5.743-2.2 7.536-8.509 6.684-14.573-.1398282-1.01381713-.9901114-1.7791987-2.013-1.812-.5683576-.01123843-1.1176261.2051824-1.5255593.60109547-.4079332.39591306-.6406803.93846503-.6464407 1.50690453-.0653984 2.25536334-.6655341 4.46294424-1.751 6.441-.8460195 1.3489368-2.26772972 2.2314158-3.852 2.391-2.513-1.072-2.762-1.494-3.4-3.364-.29607063-.8683877-1.14259172-1.42608372-2.05733636-1.35539248s-1.66552914.75182664-1.82466364 1.65539248c-.19627937.94508935-.20137957 1.9199086-.015 2.867.49044338 2.4236915 2.07414977 4.4843557 4.29 5.582.09217326 1.050884.2768895 2.0915859.552 3.11.166.71.337 1.439.546 2.19-.68238022-.483149-1.28902976-1.0651955-1.8-1.727-.61629304-.7686166-1.70460524-.9658457-2.55143065-.4623824-.8468254.5034634-1.19342669 1.5537921-.81256935 2.4623824.38387543.9845811.89813068 1.9132003 1.529 2.761 1.71280351 2.2157626 4.18021592 3.7247528 6.933 4.24.79510508 1.2334498 1.7255443 2.3741937 2.774 3.401-2.537.23-4.3-.98-5.169.972-.21303838.4765854-.22799385 1.0182877-.04157535 1.5059015.18641849.4876138.55893524.8811824 1.03557535 1.0940985 2.01515703.9742477 4.2299307 1.4645934 6.468 1.432l2.035 8.596c.814805 3.4439521 2.8460852 6.4777331 5.72 8.543l7.276 5.207c.6404918.4650327 1.5075082.4650327 2.148 0l7.282-5.211c2.8723711-2.0646212 4.9028264-5.0968104 5.718-8.539l2.037-8.592c2.2381526.0323188 4.4529387-.458372 6.468-1.433.9921314-.4437916 1.4370383-1.6075321.994-2.6-.877-1.951-2.631-.743-5.168-.972 1.0486982-1.0286822 1.9794466-2.171071 2.775-3.406 2.753034-.5152382 5.2205559-2.0246512 6.933-4.241.6310354-.8473318 1.145307-1.7756441 1.529-2.76.4160853-1.0076435-.0615722-2.1619826-1.068-2.581-.836203-.3354131-1.7934469-.072488-2.341.643-.4994051.641253-1.0919681 1.2041542-1.758 1.67.313-1.128.547-2.239.811-3.313zm-46.819 15.817c1.8491989.3631911 3.7592233.2677414 5.563-.278.3560023-.1036591.6254249-.3957902.7-.759.259-1.271-1.675-1.255-4.327-5.444-.1551826-.3519556-.47605242-.6030221-.855-.669-2.40829512-.3607621-4.58540597-1.6344435-6.08-3.557-.50042749-.6899516-.92173764-1.4339531-1.256-2.218 1.19403478 1.5668259 2.85322525 2.7156578 4.74 3.282.36217761.1081981.75441176.0029347 1.01375248-.2720596.25934073-.2749942.34146208-.6727179.21224752-1.0279404-.54069069-1.3631467-.95770338-2.7721543-1.246-4.21-.29643251-1.1416338-.49712819-2.3060032-.6-3.481-.05043119-.3562321-.28833935-.6579134-.623-.79-1.8402066-.7680269-3.18765054-2.3885458-3.607-4.338-.1380994-.7109101-.12378417-1.44303179.042-2.148.20194358.68380125.48813967 1.3398352.852 1.953 1.006 1.539 2.343 2.042 3.936 2.725.18846766.0832484.39821292.1056212.6.064 2.075-.419 3.918-.959 5.447-3.34 1.2869912-2.30386016 1.9949631-4.88591566 2.063-7.524-.0033137-.05522847.0387715-.10268629.094-.106s.1026863.03877153.106.094c.771 5.5-.8 11.114-6.135 12.669-.49416818.1452806-.79714503.6421626-.7 1.148 1.2 6.262 3.147 12.546 9.259 16.1 1.9875743 1.2062157 4.2400313 1.9079414 6.561 2.044.5145228.0645415.8943469.5116794.8748271 1.0298669-.0195199.5181875-.4319069.9354832-.9498271.9611331-1.9957551-.1205602-3.9527826-.6041409-5.775-1.427-.2714847-.1388012-.5906085-.1497928-.871-.03-.5270676.2151911-1.0740383.377976-1.633.486-2.504051.523078-5.1111244.1932336-7.406-.937zm33.662 11.307c-.7041436 2.9741145-2.4583355 5.5940391-4.94 7.378l-7.187 5.144-7.186-5.143c-2.4821062-1.784164-4.2366529-4.4044433-4.941-7.379l-1.973-8.339c.6810628-.1079814 1.3506109-.279051 2-.511 1.9747434.8491154 4.0836442 1.3436747 6.23 1.461 1.5914552-.0265995 2.8851176-1.2914445 2.947556-2.8818969s-1.128084-2.9528222-2.712556-3.1041031c-1.2350457-.0623425-2.4513603-.3279045-3.6-.786 3.5374328-1.7428628 6.6803632-4.1918641 9.235-7.196 2.5589905 3.0004079 5.7039548 5.4464157 9.242 7.188-1.1488381.4579048-2.3649545.7244369-3.6.789-1.581682.1487781-2.7731525 1.5048189-2.7171886 3.0924967s1.3399567 2.8564613 2.9281886 2.8935033c2.1530544-.1087461 4.2690316-.6036144 6.247-1.461.6497222.2308574 1.3191686.4019009 2 .511zm10.945-20.957c1.9009148-.5658889 3.5607442-1.7457041 4.72-3.355-.3160067.8190165-.7393737 1.5924431-1.259 2.3-1.4942115 1.9231672-3.6714483 3.1972804-6.08 3.558-1.159.152-.8 1.828-4.837 5.139-.2866786.235538-.4193819.6104397-.3447225.9738798s.3444073.6556687.7007225.7591202c1.8233963.5254601 3.7440761.6192687 5.61.274-2.305578 1.1333187-4.9227373 1.4671921-7.439.949-1.809-.39-1.8-.724-2.379-.515-1.868684.8385582-3.8707474 1.3405974-5.914 1.483-.3911403.0006972-.746782-.2267152-.9102561-.5820565-.1634742-.3553413-.1047684-.7733736.1502561-1.0699435.731-.84 1.932.372 6.977-2.245 6.067-3.151 8.284-9.751 9.526-16.246.097145-.5058374-.2058318-1.0027194-.7-1.148-5.325-1.557-6.91-7.157-6.137-12.671.015-.1.2-.155.206.089.077245 2.61513949.7857108 5.17282108 2.065 7.455 1.525 2.37 3.373 2.914 5.443 3.333.355.074.53-.034 1.11-.282 2.459-1.04 3.4-1.866 4.211-4.259l.087-.207c.1519747.73731887.1546949 1.4976125.008 2.236-.4386718 1.918827-1.7806743 3.505745-3.6 4.257-.3346606.1320866-.5725688.4337679-.623.79l-.337 2.389c-.3401994 1.8103175-.8442739 3.5859585-1.506 5.305-.1216278.358893-.0321293.7556709.2317885 1.0275991.2639178.2719281.6578433.3732467 1.0202115.2624009z"/></g></svg>